# xmcd CD database file
#
# Track frame offsets:
#	180
#	9213
#	18115
#	40930
#	69898
#	93599
#	120289
#	149143
#	159962
#	176948
#	200863
#	224885
#
# Disc length: 3230 seconds
#
# Revision: 0
# Processed by: cddbd v1.5.2PL0 Copyright (c) Steve Scherf et al.
# Submitted via: CDex 1.70beta2
#
DISCID=a90c9c0c
DTITLE=Megaswing Quintet - FA 7
DYEAR=1900
DGENRE=Jazz
TTITLE0=S'il te plait, dessine-moi un mutant
TTITLE1=The slidewinder
TTITLE2=Sister Sadie
TTITLE3=One By One
TTITLE4=La Safranee, "After Hours"
TTITLE5=The Preacher
TTITLE6=Groovy Francky
TTITLE7=Le Sourire de Mister Tee
TTITLE8=Le Bout d'gui
TTITLE9=Blue Acid
TTITLE10=Lover Man
TTITLE11=S.K.J.
EXTD=
EXTT0=
EXTT1=
EXTT2=
EXTT3=
EXTT4=
EXTT5=
EXTT6=
EXTT7=
EXTT8=
EXTT9=
EXTT10=
EXTT11=
PLAYORDER=
